# xmcd
#
# Track frame offsets:
#	150
#	15172
#	29876
#	44813
#	65038
#	81964
#	94648
#	108390
#	124579
#	138582
#	154550
#	168592
#	183181
#
# Disc length: 2716 seconds
#
# Revision: 1
# Processed by: cddbd v1.5.2PL0 Copyright (c) Steve Scherf et al.
# Submitted via: audiograbber 1.83.01
#
DISCID=ad0a9a0d
DTITLE=Billy Yates - That's Why I Run
DYEAR=2008
DGENRE=Country
TTITLE0=Like A Radio
TTITLE1=One House Over,Two Streets Down
TTITLE2=I Don't Know How To Live
TTITLE3=That's Why I Run
TTITLE4=Standin' In My Way
TTITLE5=Take Me Back And Keep Me There
TTITLE6=There When He Falls
TTITLE7=That Makes One Of Us
TTITLE8=Life
TTITLE9=She Didn't Say A Word
TTITLE10=Happy
TTITLE11=Under Your Bed
TTITLE12=A Man Who Knows
EXTD=
EXTT0=
EXTT1=
EXTT2=
EXTT3=
EXTT4=
EXTT5=
EXTT6=
EXTT7=
EXTT8=
EXTT9=
EXTT10=
EXTT11=
EXTT12=
PLAYORDER=
